<?xml version="1.0" encoding="UTF-8" standalone="no"?>
<!DOCTYPE svg PUBLIC "-//W3C//DTD SVG 1.1//EN" "http://www.w3.org/Graphics/SVG/1.1/DTD/svg11.dtd">
<svg version="1.1" xmlns="http://www.w3.org/2000/svg" xmlns:xlink="http://www.w3.org/1999/xlink" preserveAspectRatio="xMidYMid meet" viewBox="60.56892612338157 215.4204112718964 512.0578827113479 108.61538461538458" width="508.06" height="104.62"><defs><path d="M111.29 234.81L99.89 236.36L89.54 238.95L79.18 245.16L71.41 251.9L61.57 267.43L61.57 279.35L70.89 299.03L80.21 304.72L92.12 306.28L102.48 305.24L113.36 299.03L102.48 294.36L92.12 296.95L81.77 295.4L75.03 287.11L73.48 276.24L77.62 266.92L82.8 258.11L93.16 251.9L103 249.82L112.84 247.75L114.91 237.91" id="a1cSg8Onqm"></path><path d="M186.38 257.08L183.27 247.24L177.06 238.95L166.7 238.43L155.31 239.47L144.95 242.57L137.7 250.34L139.25 262.25L148.58 267.43L158.42 270.02L164.11 278.83L165.67 289.7L157.9 297.47L148.58 292.81L146.5 281.93L137.18 278.31L129.93 286.08L132.52 296.95L139.25 305.24L149.09 307.83L159.97 308.87L170.33 306.79L177.06 298.51L179.13 288.67L178.61 278.31L173.43 269.5L166.18 262.25L156.34 259.15L154.79 248.79L164.63 246.72L174.47 250.34L181.2 258.11" id="j2QaSe3Qoh"></path><path d="M269.25 264.84L255.26 266.92L246.46 272.61L256.3 277.27L266.66 275.72L273.39 283.49L269.76 294.88L268.21 305.76L276.5 311.45L282.71 303.17L281.68 292.81L283.75 282.97L292.55 277.79L303.43 278.31L313.79 278.31L313.79 267.95L304.46 264.33L294.11 265.88L283.23 267.43L287.89 258.11L285.82 247.24L275.98 243.09L274.94 253.97L272.87 263.81" id="eP4qZs3x7"></path><path d="M382.15 260.44L387.84 251.64L396.13 245.94L406.49 243.87L416.33 245.94L425.65 251.12L430.83 259.92L425.65 268.73L424.1 279.09L422.54 289.44L421.51 299.8L425.65 309.12L428.76 318.96L418.4 321.04L415.29 311.2L405.97 316.37L396.13 318.96L385.77 318.96L378.52 311.2L373.34 302.39L373.86 292.03L377.49 282.71L386.81 277.01L398.2 277.53L406.49 284.78L413.74 277.53L415.29 267.17L410.63 256.82L400.27 258.89L392.51 266.14L382.15 266.14L382.15 260.44Z" id="a3S2NdGu05"></path><path d="M464.49 251.64L459.31 260.44L457.24 270.8L454.65 281.68L453.1 292.03L450.51 302.91L451.03 313.27L460.87 315.34L464.49 305.5L464.49 295.14L467.08 285.3L469.67 275.46L475.37 266.66L485.73 266.14L494.01 272.35L503.34 276.5L506.44 266.14L499.71 258.37L490.39 253.19L480.03 254.23L470.71 259.41L468.64 249.57" id="b10uGRnS6q"></path><path d="M562.38 216.42L552.54 219.01L549.43 229.89L546.32 239.73L542.7 251.12L538.04 260.96L528.19 264.58L517.32 264.58L521.46 273.91L531.82 272.87L535.45 282.19L529.23 291L524.57 302.39L523.53 312.75L533.37 320L543.73 319.48L554.61 317.41L561.86 309.12L559.79 299.28L550.98 304.46L542.18 309.64L536.48 300.84L541.14 290.48L544.77 281.16L554.09 277.01L564.45 279.6L569.63 270.8L562.38 263.03L551.5 262L552.02 251.64L556.68 242.32L561.34 232.99L563.93 223.15" id="b1Gz5etPcd"></path><path d="M398.63 289.66L388.43 291.57L385.32 298.24L389 304.69L397.01 306.28L404.29 302.88L405.71 295.47L400.32 290.05" id="bpje1ZJYy"></path></defs><g><g><use xlink:href="#a1cSg8Onqm" opacity="1" fill="#000000" fill-opacity="1"></use><g><use xlink:href="#a1cSg8Onqm" opacity="1" fill-opacity="0" stroke="#ff8d00" stroke-width="1" stroke-opacity="1"></use></g></g><g><use xlink:href="#j2QaSe3Qoh" opacity="1" fill="#000000" fill-opacity="1"></use><g><use xlink:href="#j2QaSe3Qoh" opacity="1" fill-opacity="0" stroke="#ff9965" stroke-width="1" stroke-opacity="1"></use></g></g><g><use xlink:href="#eP4qZs3x7" opacity="1" fill="#000000" fill-opacity="1"></use><g><use xlink:href="#eP4qZs3x7" opacity="1" fill-opacity="0" stroke="#ffaa41" stroke-width="1" stroke-opacity="1"></use></g></g><g><use xlink:href="#a3S2NdGu05" opacity="1" fill="#000000" fill-opacity="1"></use><g><use xlink:href="#a3S2NdGu05" opacity="1" fill-opacity="0" stroke="#ff9e43" stroke-width="1" stroke-opacity="1"></use></g></g><g><use xlink:href="#b10uGRnS6q" opacity="1" fill="#000000" fill-opacity="1"></use><g><use xlink:href="#b10uGRnS6q" opacity="1" fill-opacity="0" stroke="#ff974e" stroke-width="1" stroke-opacity="1"></use></g></g><g><use xlink:href="#b1Gz5etPcd" opacity="1" fill="#000000" fill-opacity="1"></use><g><use xlink:href="#b1Gz5etPcd" opacity="1" fill-opacity="0" stroke="#ff930e" stroke-width="1" stroke-opacity="1"></use></g></g><g><use xlink:href="#bpje1ZJYy" opacity="1" fill="#ffffff" fill-opacity="1"></use><g><use xlink:href="#bpje1ZJYy" opacity="1" fill-opacity="0" stroke="#ff8c47" stroke-width="1" stroke-opacity="1"></use></g></g></g></svg>