<?xml version="1.0" encoding="UTF-8" standalone="no"?>
<!DOCTYPE svg PUBLIC "-//W3C//DTD SVG 1.1//EN" "http://www.w3.org/Graphics/SVG/1.1/DTD/svg11.dtd">
<svg version="1.1" xmlns="http://www.w3.org/2000/svg" xmlns:xlink="http://www.w3.org/1999/xlink" preserveAspectRatio="xMidYMid meet" viewBox="210.61685823754786 161.37547892720306 281.7318007662835 167.72814136896318" width="277.73" height="163.73"><defs><path d="M223.6 181.13L232.98 175.4L243.4 175.4L252.26 181.66L252.26 192.6L248.61 201.98L243.92 210.84L247.57 220.21L241.32 229.07L235.07 220.74L227.25 213.96L217.35 215.52L211.62 207.19L214.22 197.29L223.6 193.12L234.02 192.08L240.28 199.89L242.36 189.99L234.54 182.7L225.69 187.91" id="a3LSNfksi4"></path><path d="M283.52 163.42L281.44 173.84L280.4 184.26L277.27 194.16L267.37 192.6L262.68 201.46L272.06 205.1L272.58 217.09L268.93 226.47L268.41 236.89L278.31 239.49L281.96 230.11L284.57 219.69L286.13 209.79L296.55 210.84L300.2 200.93L289.78 197.29L288.21 187.39L288.74 176.97L290.3 167.07" id="f2Rah0zwvX"></path><path d="M317.39 162.38L315.83 173.32L314.79 183.74L314.27 194.16L312.7 205.1L312.7 216.05L312.18 227.51L311.14 238.45L321.04 236.89L323.13 226.99L324.69 217.09L334.07 213.44L339.28 222.82L337.72 232.72L341.36 242.1L350.74 234.8L349.7 223.86L347.1 213.96L342.93 204.58L334.07 198.85L323.13 201.98L323.65 191.56L323.13 180.61L323.65 170.19L316.35 162.9" id="bCPxyyUB1"></path><path d="M386.7 196.51L376.28 198.59L366.38 201.2L362.21 213.18L362.21 223.6L365.33 233.5L374.19 238.71L384.61 238.19L393.99 231.94L395.56 222.04L385.66 219.95L382.01 229.85L374.19 223.08L372.11 211.62L382.53 210.05L392.43 208.49L388.78 199.11" id="bjoDYpM2d"></path><path d="M404.93 201.98L405.46 213.96L409.1 223.34L410.15 233.76L419.52 237.41L422.65 227.51L419 218.13L421.61 208.23L429.43 215L431.51 224.9L440.37 230.11L446.1 221.26L441.41 211.36L436.72 202.5L430.99 194.16L422.13 188.95L411.71 193.12L408.06 202.5" id="a2XxolwvL"></path><path d="M471.54 179.82L463.96 178.01L456.76 181.63L451.83 188.88L453.35 197.48L460.17 201.11L469.64 198.84L477.22 202.46L477.22 211.52L470.02 216.05L463.2 211.07L457.52 216.5L462.44 223.3L470.02 226.47L477.98 225.56L484.8 221.03L488.97 213.33L489.35 204.28L487.07 195.22L479.87 190.69L472.67 189.33L464.72 190.69L468.88 183.44" id="eHfb2pCY3"></path><path d="M359.32 252.35L347.67 252.75L336.82 258.53L330.37 266.53L328.86 276.84L328.95 290.55L332.44 302.65L338.37 312.47L346.82 319.51L355.85 326.1L367.36 323.05L374.25 315.64L379.08 304.24L380.75 292.89L379.17 282.13L374.79 272.53L370.48 262.42L363.73 254.58L353.27 254.1" id="a3wVyLe8i"></path><path d="M393.21 254.08L391.65 264.51L391.65 275.97L394.25 286.39L395.82 296.29L397.9 309.84L397.9 320.26L408.32 321.82L416.14 315.57L414.05 303.07L409.36 294.21L416.66 285.35L426.04 289.52L426.56 299.94L431.25 309.32L440.63 312.97L442.19 302.02L437.5 289L434.9 278.57L432.81 267.11L429.16 257.21L423.95 248.35L413.01 247.83L410.93 257.73L414.57 267.11L408.84 275.97L402.59 266.07L401.03 256.17" id="b1d47ab0GD"></path><path d="M262.16 251.74L257.47 260.6L255.39 270.5L253.82 280.4L250.7 291.86L258.51 298.64L267.89 302.28L271.02 312.18L277.27 320L284.05 311.66L292.38 305.41L301.76 301.76L308.02 293.95L308.02 283.52L309.58 273.62L312.18 263.72L301.24 262.68L290.3 269.98L277.27 262.16L271.02 253.82L262.68 247.05" id="e1wDWCIuRo"></path><path d="M230.48 199.89L221 203.02L226.87 210.84L234.54 206.15" id="aY9R75ZkU"></path><path d="M366.88 288.38L353.47 272.6L343.97 289.9L358.77 301.01" id="b5zGDe27b"></path><path d="M379.82 202.75L372.93 206.22L378.15 206.68L383.51 203.29" id="aamvHxKr7"></path></defs><g><g><use xlink:href="#a3LSNfksi4" opacity="1" fill="#237d4c" fill-opacity="1"></use></g><g><use xlink:href="#f2Rah0zwvX" opacity="1" fill="#237d4c" fill-opacity="1"></use></g><g><use xlink:href="#bCPxyyUB1" opacity="1" fill="#237d4c" fill-opacity="1"></use></g><g><use xlink:href="#bjoDYpM2d" opacity="1" fill="#237d4c" fill-opacity="1"></use></g><g><use xlink:href="#a2XxolwvL" opacity="1" fill="#237d4c" fill-opacity="1"></use></g><g><use xlink:href="#eHfb2pCY3" opacity="1" fill="#237d4c" fill-opacity="1"></use></g><g><use xlink:href="#a3wVyLe8i" opacity="1" fill="#237d4c" fill-opacity="1"></use></g><g><use xlink:href="#b1d47ab0GD" opacity="1" fill="#237d4c" fill-opacity="1"></use></g><g><use xlink:href="#e1wDWCIuRo" opacity="1" fill="#6932ba" fill-opacity="1"></use></g><g><use xlink:href="#aY9R75ZkU" opacity="1" fill="#ffffff" fill-opacity="1"></use></g><g><use xlink:href="#b5zGDe27b" opacity="1" fill="#ffffff" fill-opacity="1"></use></g><g><use xlink:href="#aamvHxKr7" opacity="1" fill="#ffffff" fill-opacity="1"></use></g></g></svg>