<?xml version="1.0" encoding="UTF-8" standalone="no"?>
<!DOCTYPE svg PUBLIC "-//W3C//DTD SVG 1.1//EN" "http://www.w3.org/Graphics/SVG/1.1/DTD/svg11.dtd">
<svg version="1.1" xmlns="http://www.w3.org/2000/svg" xmlns:xlink="http://www.w3.org/1999/xlink" preserveAspectRatio="xMidYMid meet" viewBox="200.19540229885055 112.99261008471063 287.9846743295019 199.32539757812452" width="283.98" height="195.33"><defs><path d="M201.2 200.15L202.24 212.14L206.93 221L210.57 230.9L214.22 240.8L219.43 249.66L223.6 259.03L234.02 258.51L230.38 245.49L225.69 236.11L232.98 228.81L241.32 242.88L245.49 252.78L252.78 245.49L249.66 235.07L246.01 225.16L241.84 215.79L237.15 204.32L232.46 194.94L223.08 190.77L221.52 201.2L225.69 210.57L216.31 214.22L211.1 205.36L205.36 197.03" id="acqttnvQS"></path><path d="M254.87 205.1L261.12 196.25L271.54 196.77L278.31 205.1L279.88 215L283 225.43L290.82 232.2L287.17 241.58L278.31 235.85L268.93 239.49L259.56 235.85L255.91 226.47L260.08 216.05L270.5 215.52L265.29 206.15L255.91 209.79" id="f7jmvCgqT"></path><path d="M290.82 192.6L292.9 204.06L292.9 214.48L294.47 224.9L299.16 234.28L307.49 228.55L304.37 218.13L302.8 208.23L310.62 200.93L316.87 208.75L316.35 219.69L314.79 229.59L325.21 232.2L327.3 222.3L325.21 212.4L323.65 201.98L320.52 192.08L310.1 188.95L299.16 191.56" id="czocZuS54"></path><path d="M358.04 193.64L347.62 191.56L338.76 197.29L333.03 206.15L331.46 216.57L335.11 226.47L343.45 233.76L353.87 235.33L363.77 232.72L367.94 222.3L367.42 211.88L363.25 202.5L355.95 194.68" id="bKgzwQxF7"></path><path d="M367.42 190.77L369.5 202.24L371.07 212.14L373.15 222.56L374.71 232.46L384.61 234.54L391.91 226.21L397.12 217.35L403.89 209.53L406.5 199.11L397.12 194.94L389.3 202.24L385.66 212.14L382.53 200.67L378.36 190.77L367.94 191.3" id="aazVmbjQl"></path><path d="M447.14 209.79L439.85 202.5L429.43 199.89L419 202.5L411.19 208.75L406.5 219.17L407.02 230.11L413.79 238.45L422.65 243.66L433.07 240.54L430.47 230.64L419.52 231.16L418.48 220.74L428.9 220.74L438.28 225.43L445.58 218.13" id="a1xWuDjWBE"></path><path d="M454.96 216.05L449.75 225.43L446.1 235.33L442.97 245.75L451.31 253.04L459.13 245.75L461.21 235.85L470.07 231.16L476.32 239.49L485.18 234.28L481.01 223.86L471.63 219.17L461.21 221.26" id="d1jlJKHgz0"></path><path d="M294.21 255.65L295.77 266.59L296.29 279.1L295.77 292.64L296.29 304.11L306.19 306.71L309.32 296.29L309.84 285.87L316.61 294.21L319.22 304.63L330.16 305.15L336.41 296.81L332.77 285.87L330.16 273.89L329.64 261.9L327.03 251.48L316.61 249.92L314.53 261.9L317.66 271.8L308.28 263.46L303.07 254.61" id="a2DghXidLz"></path><path d="M346.84 251.48L343.19 262.42L343.19 272.84L343.71 284.31L343.71 294.73L345.27 304.63L354.65 308.28L358.82 298.9L357.78 288.48L365.59 281.7L372.37 290.04L370.28 300.46L375.49 309.32L383.83 303.07L384.35 291.6L382.27 280.14L382.27 269.2L380.7 258.77L374.45 249.92L365.07 253.56L366.11 263.98L360.9 273.89L356.21 265.03L357.78 255.13L349.96 248.87" id="aV3GyjQ1x"></path><path d="M341.42 113.99L336.11 120.37L330.77 127.9L325.44 135.05L333.57 133.38L331.59 142.17L325.86 148.54L322.67 155.37L330.44 151.76L328.89 160.57L323.99 167.34L320.37 174.16L328.57 170.57L337.17 167.76L338.64 175.12L337.12 182.77L346.39 185.76L347.07 177.7L348.17 169.65L357.03 172.24L365.49 173.66L361.89 166.61L357.87 159.17L366.01 157.5L361.52 151.2L355.35 144.46L350.88 137.78L358.22 134.54L352.04 128.19L347.57 121.5L343.08 115.2" id="c38vohxf2S"></path><path d="M270.5 219.95L264.77 228.29L275.19 228.29L271.54 218.91" id="id3oxmqnr"></path><path d="M348.92 208.72L343.19 218.91L353.61 218.91L349.96 207.45" id="b9gkYVd2q"></path><path d="M431.3 209.09L423.88 213.53L433.81 216.69L432.54 208.63" id="b2Aqeo3yld"></path></defs><g><g><use xlink:href="#acqttnvQS" opacity="1" fill="#7037c6" fill-opacity="1"></use></g><g><use xlink:href="#f7jmvCgqT" opacity="1" fill="#7037c6" fill-opacity="1"></use></g><g><use xlink:href="#czocZuS54" opacity="1" fill="#7037c6" fill-opacity="1"></use></g><g><use xlink:href="#bKgzwQxF7" opacity="1" fill="#7037c6" fill-opacity="1"></use></g><g><use xlink:href="#aazVmbjQl" opacity="1" fill="#7037c6" fill-opacity="1"></use></g><g><use xlink:href="#a1xWuDjWBE" opacity="1" fill="#7037c6" fill-opacity="1"></use></g><g><use xlink:href="#d1jlJKHgz0" opacity="1" fill="#7037c6" fill-opacity="1"></use></g><g><use xlink:href="#a2DghXidLz" opacity="1" fill="#7037c6" fill-opacity="1"></use></g><g><use xlink:href="#aV3GyjQ1x" opacity="1" fill="#7037c6" fill-opacity="1"></use></g><g><use xlink:href="#c38vohxf2S" opacity="1" fill="#0b562d" fill-opacity="1"></use><g><use xlink:href="#c38vohxf2S" opacity="1" fill-opacity="0" stroke="#000000" stroke-width="1" stroke-opacity="1"></use></g></g><g><use xlink:href="#id3oxmqnr" opacity="1" fill="#ffffff" fill-opacity="1"></use></g><g><use xlink:href="#b9gkYVd2q" opacity="1" fill="#ffffff" fill-opacity="1"></use></g><g><use xlink:href="#b2Aqeo3yld" opacity="1" fill="#ffffff" fill-opacity="1"></use></g></g></svg>