<?xml version="1.0" encoding="UTF-8" standalone="no"?>
<!DOCTYPE svg PUBLIC "-//W3C//DTD SVG 1.1//EN" "http://www.w3.org/Graphics/SVG/1.1/DTD/svg11.dtd">
<svg version="1.1" xmlns="http://www.w3.org/2000/svg" xmlns:xlink="http://www.w3.org/1999/xlink" preserveAspectRatio="xMidYMid meet" viewBox="157.4674329501916 276.7931034482758 330.1915708812261 150.94252873563215" width="326.19" height="146.94"><defs><path d="M201.72 324.17L190.25 322.61L179.83 321.04L167.85 324.69L169.93 334.59L180.35 336.15L185.04 345.01L176.7 352.31L166.28 359.6L158.47 365.85L160.55 377.32L172.02 379.4L181.92 374.19L195.46 375.75L195.98 388.26L191.82 398.16L196.51 408.58L206.93 409.62L212.14 400.77L218.39 392.95L230.38 391.39L235.59 400.77L235.59 411.19L246.01 421.09L256.43 424.21L263.72 414.31L267.89 404.41L277.27 399.2L286.13 404.41L285.61 416.92L295.51 424.74L302.8 414.84L302.8 403.89L311.66 399.2L322.08 403.37L325.73 414.84L334.07 421.61L339.8 412.75L339.8 401.29L345.01 391.91L354.91 388.78L363.25 394.51L369.5 404.93L376.8 413.27L388.26 411.19L387.22 400.25L392.43 390.87L403.37 390.87L412.75 395.56L419.52 403.89L429.43 406.5L433.07 395.03L436.72 385.13L447.66 388.78L458.61 394.51L467.98 390.34L469.03 379.92L478.41 374.71L484.66 366.38L476.84 357L463.3 355.95L463.82 343.45L472.15 337.2L481.53 331.98L473.72 325.21L462.25 323.65L462.77 311.14L463.3 299.68L454.44 293.95L442.97 298.64L433.07 303.33L422.13 305.41L423.69 291.86L417.44 283L406.5 284.05L398.16 289.78L389.3 295.51L378.36 297.59L372.11 288.74L367.42 278.84L355.43 277.79L346.05 282.48L338.24 289.78L336.67 300.72L328.34 309.06L316.87 304.89L311.66 295.51L301.24 289.26L291.86 293.43L287.69 306.97L284.05 316.35L273.62 313.75L268.93 303.85L256.95 295.51L242.36 301.76L244.44 314.79L244.97 325.21L235.07 328.86L223.08 311.14L218.39 301.76L212.66 315.31L208.49 328.34L197.03 323.13" id="agL0tm9Ok"></path><path d="M208.49 303.85L198.07 302.8L203.28 311.66L204.32 323.65L205.36 334.59L206.41 346.57L206.41 358.56L204.84 369.5L203.28 379.4L201.2 389.3L191.3 395.03L200.15 400.25L210.57 400.25L222.56 401.29L216.83 392.43L217.35 382.01L218.91 371.59L219.95 361.16L220.48 348.14L220.48 337.2L221.52 326.77L223.08 315.83L228.81 305.93L238.19 301.76L226.21 301.24L215.26 302.28L204.84 302.28" id="bfVSI5fl"></path><path d="M242.88 311.88L238.71 321.78L249.13 320.74L261.12 320.74L260.6 331.68L258.51 341.58L257.47 352.52L257.47 363.46L257.47 373.89L255.91 394.73L249.13 403.59L260.08 402.02L274.15 403.07L268.41 394.73L269.98 384.83L269.98 373.36L269.46 362.42L269.98 350.44L271.54 340.02L272.06 329.59L281.44 322.82L291.34 321.26L299.16 328.55L304.89 320.22L300.2 311.36L289.26 311.36L277.27 312.92L266.85 313.96L255.91 313.96L246.01 311.88" id="hvlccJdjp"></path><path d="M333.85 301.24L316.79 337.91L313.25 348.93L310.23 360.03L308.47 372.95L305.12 382.94L312.33 390.04L324.41 390.59L334.76 391.89L346.23 392.86L356.25 393.04L354.9 382.75L351.25 370.46L348.87 359.99L345.73 347.79L343.86 337.41L341.99 327.02L340.13 316.64L337.14 306.59" id="b2wFa3uSQ7"></path><path d="M384.61 298.42L374.19 297.38L379.92 305.72L382.53 317.7L382.01 328.12L380.97 339.06L380.44 349.49L379.92 359.91L377.84 370.85L374.19 380.23L365.85 387L376.8 383.36L388.26 382.83L398.68 384.4L409.1 385.96L420.05 386.48L422.13 376.06L412.23 377.62L401.81 377.1L391.39 376.06L389.82 366.16L390.87 355.22L389.82 344.8L388.26 334.37L388.78 321.87L389.3 311.45L393.47 301.55L382.01 299.46" id="c3M0W0Kdpu"></path><path d="M416.92 299.11L425.78 303.8L429.43 313.7L434.64 322.56L438.28 331.94L444.54 339.76L446.1 351.74L446.62 362.68L446.62 373.1L445.58 383.53L436.2 387.69L447.14 389.78L457.56 389.26L467.98 388.74L460.69 381.44L454.96 372.06L453.92 360.6L453.92 350.18L454.96 339.76L459.65 330.38L463.3 321L467.98 309.53L473.2 300.15L483.1 297.03L473.2 294.94L462.77 295.99L458.61 305.89L456.52 317.35L451.83 326.21L444.02 319.95L439.33 310.58L436.2 300.68L425.78 297.03" id="dqxdK4hTo"></path><path d="M334.85 334.33L329.64 344.23L326 353.61L321.83 364.55L317.66 373.93L327.56 376.02L337.98 377.06L337.98 363.51L334.33 353.09L333.29 342.67" id="b1hJZIzYBN"></path></defs><g><g><use xlink:href="#agL0tm9Ok" opacity="1" fill="#e85e2a" fill-opacity="1"></use></g><g><use xlink:href="#bfVSI5fl" opacity="1" fill="#37c6ac" fill-opacity="1"></use></g><g><use xlink:href="#hvlccJdjp" opacity="1" fill="#37c6ac" fill-opacity="1"></use></g><g><use xlink:href="#b2wFa3uSQ7" opacity="1" fill="#37c6ac" fill-opacity="1"></use></g><g><use xlink:href="#c3M0W0Kdpu" opacity="1" fill="#37c6ac" fill-opacity="1"></use></g><g><use xlink:href="#dqxdK4hTo" opacity="1" fill="#37c6ac" fill-opacity="1"></use></g><g><use xlink:href="#b1hJZIzYBN" opacity="1" fill="#e85e2a" fill-opacity="1"></use></g></g></svg>