<?xml version="1.0" encoding="UTF-8" standalone="no"?>
<!DOCTYPE svg PUBLIC "-//W3C//DTD SVG 1.1//EN" "http://www.w3.org/Graphics/SVG/1.1/DTD/svg11.dtd">
<svg version="1.1" xmlns="http://www.w3.org/2000/svg" xmlns:xlink="http://www.w3.org/1999/xlink" preserveAspectRatio="xMidYMid meet" viewBox="164.7624521072797 152.51724137931038 357.8084291187739 182.2068965517241" width="353.81" height="178.21"><defs><path d="M349.18 191.03L338.24 193.64L325.73 193.12L311.66 192.6L301.24 190.51L287.17 186.34L275.71 183.74L263.72 181.66L252.26 178.53L237.67 176.97L225.69 176.44L207.45 177.49L195.46 180.09L184 184.78L170.45 194.16L166.28 210.84L165.76 221.26L165.76 232.2L166.8 242.62L171.49 253.04L181.92 265.55L191.82 274.41L200.15 280.14L214.74 291.08L229.33 301.5L247.05 308.28L275.71 314.53L290.82 316.09L306.97 318.18L325.73 320.78L340.84 321.82L352.83 321.82L368.46 320.26L382.53 316.61L396.08 313.49L406.5 311.4L418.48 308.8L428.9 305.67L438.8 300.98L449.75 295.77L460.17 290.56L470.07 285.87L483.1 278.05L494.56 269.2L502.9 260.86L510.71 252L515.92 238.45L517.49 223.34L514.88 210.31L509.15 200.93L501.33 193.12L491.43 187.39L478.93 183.22L469.03 181.66L457.04 180.61L446.1 180.09L435.68 179.57L425.26 179.57L412.75 180.09L402.33 180.61L391.39 181.66L380.44 182.7L370.54 184.78L360.64 186.34L350.74 188.95L339.28 192.08" id="e4LPvMXLI"></path><path d="M186.08 158.73L189.21 171.75L190.77 182.18L191.82 194.68L191.82 205.62L191.3 216.57L190.25 229.07L189.21 239.49L187.65 250.96L184 262.94L179.83 275.45L175.14 284.31L170.45 297.33L168.89 309.32L170.45 319.74L180.87 321.82L188.17 312.44L195.98 294.73L201.2 285.35L204.32 274.93L207.45 265.03L212.66 278.57L215.79 289.52L219.43 300.98L224.12 314.53L229.85 324.95L237.67 331.72L243.92 323.39L243.92 298.9L241.32 289L234.02 272.32L226.21 264.51L222.56 254.61L215.79 246.79L216.31 235.33L223.08 225.43L227.77 216.57L232.46 207.19L236.11 195.72L240.8 184.78L243.4 173.32L244.44 161.33L236.63 153.52L228.29 159.25L224.64 168.63L221 183.22L215.79 194.68L213.18 205.62L210.57 216.57L210.05 205.1L210.05 193.64L209.01 183.22L207.97 171.23L205.89 161.33L197.55 155.08L187.13 157.69" id="a2EFnYE5MT"></path><path d="M278.31 203.54L268.41 205.1L257.99 209.79L250.18 220.74L246.01 234.28L244.44 249.39L249.66 262.94L256.43 274.93L263.72 283.26L275.19 284.83L285.61 280.14L292.38 270.24L297.59 260.86L301.24 246.79L301.24 235.85L298.11 223.86L294.47 211.88L286.13 204.58L275.71 200.41L266.85 205.1" id="b18Q6l2hcv"></path><path d="M270.81 229.07L264.7 236.89L262.16 246.79L267.25 256.17L277.93 253.04L283.52 241.06L278.95 230.64L269.79 226.99" id="a2pt8dBmV3"></path><path d="M315.05 193.12L311.92 203.02L311.4 223.34L312.44 236.37L311.4 249.39L309.84 259.3L310.36 269.72L309.84 280.14L310.36 290.56L316.61 298.38L325.47 292.64L327.03 282.22L331.2 271.8L330.68 261.38L329.64 250.96L335.37 260.86L340.58 271.28L344.23 285.35L348.92 297.33L353.61 306.71L357.78 317.66L365.59 324.43L375.49 322.34L381.75 314.53L381.23 302.54L374.97 292.64L368.72 279.62L362.99 269.72L357.26 261.38L349.44 253.04L347.36 242.62L354.13 233.76L358.82 222.82L364.03 212.92L367.68 203.54L364.55 193.64L356.74 187.39L347.88 182.7L336.93 181.13L327.03 182.7L318.18 187.39" id="c1qycDD6QX"></path><path d="M331.72 205.1L330.68 215.52L329.64 226.99L339.02 222.82L342.67 213.44L335.89 204.58" id="b17Vnv9piz"></path><path d="M405.2 198.85L395.82 202.5L383.83 205.62L379.14 217.09L379.66 227.51L380.18 238.45L381.75 250.44L383.31 263.46L386.44 275.45L391.65 284.83L402.59 283.79L412.49 281.7L422.39 279.1L431.77 274.93L430.21 264.51L419.79 264.51L409.89 266.59L399.98 263.46L395.82 253.56L400.51 244.18L410.93 242.62L416.66 233.76L408.84 227.51L398.94 230.64L390.61 222.3L399.46 215.52L410.41 213.96L417.18 205.62L416.14 195.2L405.72 196.25" id="aJpAtpOXT"></path><path d="M448.7 154.04L447.14 163.94L447.14 176.44L446.1 189.99L446.1 204.06L446.62 219.17L447.66 230.64L449.23 248.35L447.66 258.25L447.14 268.67L447.66 280.14L454.44 287.95L465.38 286.91L475.8 285.87L488.31 287.43L500.81 287.43L511.23 287.95L519.57 278.57L515.92 268.15L509.67 259.3L500.29 247.31L494.04 237.93L487.79 228.03L481.53 217.09L477.36 206.67L471.63 195.2L466.94 184.26L461.21 172.8L456 162.9L451.83 153.52" id="b1ikLR5Def"></path><path d="M466.94 220.74L465.38 231.68L464.34 242.1L465.38 256.17L476.32 255.65L474.24 244.7L469.03 233.76L466.94 223.34" id="a1xvKRRkZr"></path></defs><g><g><use xlink:href="#e4LPvMXLI" opacity="1" fill="#31d5c2" fill-opacity="1"></use></g><g><use xlink:href="#a2EFnYE5MT" opacity="1" fill="#e85e2a" fill-opacity="1"></use></g><g><use xlink:href="#b18Q6l2hcv" opacity="1" fill="#e85e2a" fill-opacity="1"></use></g><g><use xlink:href="#a2pt8dBmV3" opacity="1" fill="#31d5c2" fill-opacity="1"></use></g><g><use xlink:href="#c1qycDD6QX" opacity="1" fill="#e85e2a" fill-opacity="1"></use></g><g><use xlink:href="#b17Vnv9piz" opacity="1" fill="#31d5c2" fill-opacity="1"></use></g><g><use xlink:href="#aJpAtpOXT" opacity="1" fill="#e85e2a" fill-opacity="1"></use></g><g><use xlink:href="#b1ikLR5Def" opacity="1" fill="#e85e2a" fill-opacity="1"></use></g><g><use xlink:href="#a1xvKRRkZr" opacity="1" fill="#31d5c2" fill-opacity="1"></use></g></g></svg>