<?xml version="1.0" encoding="UTF-8" standalone="no"?>
<!DOCTYPE svg PUBLIC "-//W3C//DTD SVG 1.1//EN" "http://www.w3.org/Graphics/SVG/1.1/DTD/svg11.dtd">
<svg version="1.1" xmlns="http://www.w3.org/2000/svg" xmlns:xlink="http://www.w3.org/1999/xlink" preserveAspectRatio="xMidYMid meet" viewBox="21.331606217616496 166.43578496685603 557.8860103626945 215.39896373056996" width="553.89" height="211.4"><defs><path d="M63.78 205.78L56.01 212.51L51.87 221.84L47.72 232.2L45.65 242.05L43.58 252.93L35.28 260.7L24.4 266.92L35.8 264.85L38.91 275.73L37.36 286.09L29.59 292.82L22.33 300.08L33.73 296.97L38.39 306.3L39.43 316.66L38.91 327.54L37.36 337.9L44.09 329.61L53.94 325.47L63.26 330.65L72.07 336.35L69.48 347.23L77.77 341.53L86.58 347.75L88.65 357.59L97.46 352.41L95.91 342.05L108.34 340.49L111.97 351.37L111.97 361.74L121.3 365.36L120.78 355L125.44 344.64L137.36 344.64L148.24 346.19L151.87 357.59L154.46 367.44L161.71 359.15L160.67 348.78L169.48 343.6L179.33 347.23L188.65 352.41L191.24 363.81L197.98 355L201.61 345.67L210.93 341.01L222.85 341.01L233.73 341.53L240.98 349.3L239.43 360.18L241.5 370.03L248.24 361.22L247.2 349.82L256.01 343.6L267.41 344.64L276.74 351.89L276.22 362.25L278.29 373.65L288.65 370.03L289.17 359.66L290.73 349.3L302.64 346.71L313.01 352.41L318.19 361.22L321.3 371.06L328.55 378.83L330.62 363.81L332.69 353.96L344.61 353.45L356.01 353.45L361.71 363.29L365.34 373.14L374.66 377.8L377.77 367.95L375.7 358.11L383.99 349.3L399.02 347.23L406.79 353.96L406.79 364.33L407.31 374.69L417.67 377.28L421.3 367.44L417.67 356.55L426.99 351.37L436.32 359.15L439.95 368.99L446.68 377.8L456.53 374.17L458.6 364.33L450.83 356.55L447.2 347.23L457.05 349.82L466.89 353.45L471.55 363.29L481.92 371.06L482.44 360.18L478.29 350.86L488.65 350.86L497.46 357.07L504.72 364.33L509.9 354.48L502.12 346.19L511.97 344.12L520.78 350.34L523.89 339.97L526.99 330.13L532.69 321.32L538.39 311.48L547.2 305.26L557.05 300.6L546.17 299.04L547.72 288.16L550.31 277.28L554.97 267.95L565.34 266.92L559.12 258.63L555.49 248.78L555.49 238.42L563.78 232.2L573.63 225.99L576.22 216.14L565.85 218.73L555.49 221.32L548.24 213.03L542.02 204.74L533.21 199.56L529.59 189.2L524.92 179.87L516.63 186.61L517.15 196.97L505.75 200.08L493.83 200.08L483.47 199.56L471.55 198.52L466.37 189.2L462.75 179.87L452.38 181.43L448.24 191.79L448.24 202.15L437.88 202.67L427.51 200.6L431.66 189.72L431.14 179.35L421.81 174.17L416.11 184.02L414.56 194.9L404.72 198.01L395.91 192.82L397.46 181.43L392.8 170.54L381.92 167.44L379.84 177.28L373.63 186.09L362.23 184.02L353.94 177.8L350.31 168.47L339.43 174.17L331.14 184.53L322.85 190.23L313.01 192.31L301.09 192.82L297.98 182.46L290.73 190.23L278.81 192.31L265.85 189.72L254.97 187.64L253.42 177.28L245.13 171.58L244.09 182.46L239.95 192.31L229.59 191.79L222.33 183.5L214.04 173.14L207.82 181.94L208.86 192.82L196.94 190.75L186.06 183.5L180.36 172.62L177.25 182.98L175.18 193.86L165.34 189.2L154.46 186.61L144.09 181.43L139.43 172.1L138.39 183.5L138.91 193.86L127.51 192.31L117.15 190.23L107.31 187.64L101.61 195.93L95.39 187.12L91.24 176.24L84.51 168.47L76.74 175.73L81.4 185.05L82.95 195.42L73.11 193.34L62.75 189.2L65.34 200.08" id="bGgcRxiSK"></path><path d="M94.09 213.26L88.39 204.97L80.62 212.75L78.03 224.15L73.89 236.06L70.78 246.94L68.7 257.82L65.08 268.19L62.49 282.18L60.93 294.61L59.38 306.53L65.08 316.89L76.99 320L89.95 321.04L99.79 317.93L109.64 313.26L113.78 303.94L104.97 298.76L95.13 301.35L84.77 298.76L82.18 288.91L80.62 276.99L84.25 266.63L86.84 256.79L89.95 246.94L94.09 235.54L94.61 225.18L93.58 214.82" id="b4cKDSy0D7"></path><path d="M161.97 213.41L152.12 211.33L140.73 210.81L135.03 220.66L131.4 231.54L129.84 244.49L128.29 256.93L126.74 269.36L125.7 279.73L124.66 291.64L122.07 303.56L119.48 313.41L123.63 322.73L135.03 324.8L145.39 322.73L157.31 321.7L166.63 316.51L160.93 308.22L150.57 309.78L140.21 311.85L137.1 302.01L140.73 291.13L140.73 279.21L144.35 268.85L153.68 265.22L160.41 257.45L150.57 252.78L143.83 244.49L146.94 233.61L148.5 223.25L159.38 220.66L169.22 218.59L159.9 212.37" id="h1TH9pXES6"></path><path d="M205.23 210.81L194.35 214.96L189.69 225.32L188.13 238.28L184.51 253.82L182.95 266.77L179.84 279.73L176.22 294.23L174.66 305.12L172.59 315.48L170.52 325.84L180.36 327.91L190.73 326.88L202.64 326.36L214.04 323.25L223.89 317.55L224.92 303.56L222.85 288.02L220.26 275.58L216.63 266.25L214.04 255.89L211.97 246.05L209.9 233.61L208.86 223.25L207.82 212.37" id="cUxuu2YHx"></path><clipPath id="clipjkjWz7azj"><use xlink:href="#cUxuu2YHx" opacity="1"></use></clipPath><path d="M258.34 249.02L258.86 237.1L257.82 224.66L255.75 214.82L246.42 210.67L241.24 222.59L239.17 233.47L237.1 243.32L235.54 254.72L235.03 265.6L234.51 278.55L233.99 288.91L233.47 299.27L234.51 309.64L236.58 320L247.46 316.89L250.57 305.49L252.64 295.13L253.16 284.77L254.72 273.89L264.56 271.3L274.92 272.85L273.37 284.77L270.78 297.72L269.74 308.6L272.85 319.48L285.28 316.89L289.43 307.05L291.5 293.06L292.54 282.69L294.09 267.67L294.61 255.23L293.06 244.35L292.54 233.47L294.61 223.63L294.09 212.75L283.21 214.82L276.99 245.39L267.15 254.72L256.27 256.27L258.34 246.42" id="d2ncG1Y0eS"></path><path d="M353.21 207.2L352.81 219.12L351.35 230.01L349.91 241.94L346.91 252.85L343.39 264.29L339.86 275.2L339.44 285.57L337.48 296.98L331.87 306.88L330.42 317.78L328.45 328.68L332.68 337.96L344.07 336.82L350.2 327.44L352.16 315.5L353.09 304.09L355.05 292.67L356.5 281.26L361.27 293.13L360.87 305.57L363.56 315.91L366.25 326.25L373.58 334.47L384.98 334.88L392.15 324.97L392.04 313.57L386.76 303.77L380.94 290.88L374.14 283.17L381.81 273.25L391.6 267.46L399.31 260.13L404.91 250.23L405.85 239.86L405.75 228.46L403.57 217.6L396.22 207.83L386.85 202.22L375.95 200.76L363.53 202.43L353.71 205.12" id="bt5KWXazn"></path><path d="M418.95 212.45L421.14 224.87L423.82 235.2L425.48 246.07L427.66 257.45L427.77 268.85L426.34 282.33L424.37 293.23L421.91 306.73L418.38 317.12L416.93 328.54L422.71 336.77L433.04 333.57L437.08 322.65L439.05 311.23L440.99 297.74L444 287.35L443.39 276.99L443.81 266.62L444.74 255.22L449.82 244.29L455.95 234.9L460.52 225.53L460.93 214.13L450.04 213.2L442.86 221.04L438.82 231.95L435.82 243.38L435.7 230.95L434.54 218L427.73 210.3" id="d3t99SwcAy"></path><path d="M488.93 216.14L478.62 221.41L473.53 231.31L470.55 244.29L468.05 254.16L467.12 265.57L466.19 276.46L466.28 286.82L465.87 298.22L467.02 309.61L471.77 318.89L479.09 326.08L488.45 330.13L499.83 327.96L508.56 319.58L514.17 310.2L519.76 297.71L522.24 286.29L526.28 275.37L528.77 264.99L531.77 252.52L532.7 241.63L531.56 230.76L527.32 220.44L515.94 223.14L512.93 233.53L510.46 245.47L507.96 255.85L505.48 267.28L502.99 277.66L499.97 287.54L495.92 297.94L489.79 307.32L482.98 299.62L482.34 286.15L481.71 274.76L481.6 262.32L483.56 250.9L485.51 237.93L485.93 227.05L486.87 216.67" id="aUfuLmEt"></path><path d="M202.38 269.36L196.17 278.83L194.61 290.92L192.54 301.43L203.42 305.12L206.53 293.55L207.05 281.46L204.97 271.47" id="atETqfmlc"></path><path d="M368.19 227.51L367.67 237.88L367.15 249.27L378.03 251.87L381.14 241.5L379.07 231.66L371.3 224.92" id="a4ffMRR9hc"></path></defs><g><g><use xlink:href="#bGgcRxiSK" opacity="1" fill="#500093" fill-opacity="1"></use></g><g><use xlink:href="#b4cKDSy0D7" opacity="1" fill="#db6e22" fill-opacity="1"></use><g><use xlink:href="#b4cKDSy0D7" opacity="1" fill-opacity="0" stroke="#a5bbed" stroke-width="1" stroke-opacity="1"></use></g></g><g><use xlink:href="#h1TH9pXES6" opacity="1" fill="#db6e22" fill-opacity="1"></use><g><use xlink:href="#h1TH9pXES6" opacity="1" fill-opacity="0" stroke="#b0b4da" stroke-width="1" stroke-opacity="1"></use></g></g><g><use xlink:href="#cUxuu2YHx" opacity="1" fill="#db6e22" fill-opacity="1"></use><g clip-path="url(#clipjkjWz7azj)"><use xlink:href="#cUxuu2YHx" opacity="1" fill-opacity="0" stroke="#a5bbed" stroke-width="2" stroke-opacity="1"></use></g></g><g><use xlink:href="#d2ncG1Y0eS" opacity="1" fill="#db6e22" fill-opacity="1"></use><g><use xlink:href="#d2ncG1Y0eS" opacity="1" fill-opacity="0" stroke="#a5bbed" stroke-width="1" stroke-opacity="1"></use></g></g><g><use xlink:href="#bt5KWXazn" opacity="1" fill="#db6e22" fill-opacity="1"></use><g><use xlink:href="#bt5KWXazn" opacity="1" fill-opacity="0" stroke="#a5bbed" stroke-width="1" stroke-opacity="1"></use></g></g><g><use xlink:href="#d3t99SwcAy" opacity="1" fill="#db6e22" fill-opacity="1"></use><g><use xlink:href="#d3t99SwcAy" opacity="1" fill-opacity="0" stroke="#a5bbed" stroke-width="1" stroke-opacity="1"></use></g></g><g><use xlink:href="#aUfuLmEt" opacity="1" fill="#db6e22" fill-opacity="1"></use><g><use xlink:href="#aUfuLmEt" opacity="1" fill-opacity="0" stroke="#a5bbed" stroke-width="1" stroke-opacity="1"></use></g></g><g><use xlink:href="#atETqfmlc" opacity="1" fill="#500093" fill-opacity="1"></use><g><use xlink:href="#atETqfmlc" opacity="1" fill-opacity="0" stroke="#a5bbed" stroke-width="1" stroke-opacity="1"></use></g></g><g><use xlink:href="#a4ffMRR9hc" opacity="1" fill="#500093" fill-opacity="1"></use><g><use xlink:href="#a4ffMRR9hc" opacity="1" fill-opacity="0" stroke="#a5bbed" stroke-width="1" stroke-opacity="1"></use></g></g></g></svg>